<?xml version="1.0" encoding="utf-8"?>
<!-- Generator: Adobe Illustrator 27.5.0, SVG Export Plug-In . SVG Version: 6.00 Build 0)  -->
<svg version="1.1" id="Calque_1" xmlns="http://www.w3.org/2000/svg" xmlns:xlink="http://www.w3.org/1999/xlink" x="0px" y="0px"
	 viewBox="0 0 128 64" style="enable-background:new 0 0 128 64;" xml:space="preserve">
<style type="text/css">
	.st0{enable-background:new    ;}
	.st1{fill:#353237;}
	.st2{fill:#5F4BE8;}
</style>
<g class="st0">
	<path class="st1" d="M88.3,50.5v0.5h-7.7v-0.4c2.6-2,6.7-5.6,6.7-8.6c0-1.3-0.9-2.8-3.4-2.8c-1.3,0-2.4,0.4-3.2,0.8v-0.6
		c0.8-0.4,1.9-0.8,3.2-0.8c2.9,0,4,1.8,4,3.4c0,3-3.8,6.4-6.4,8.5H88.3z"/>
	<path class="st1" d="M99.1,45c0,4.2-1.4,6.3-4.5,6.3c-3.1,0-4.5-2.1-4.5-6.3c0-4.2,1.4-6.3,4.5-6.3C97.7,38.7,99.1,40.8,99.1,45z
		 M98.6,45c0-4.2-1.4-5.8-4-5.8c-2.5,0-4,1.5-4,5.8c0,4.3,1.4,5.8,4,5.8C97.2,50.8,98.6,49.2,98.6,45z"/>
	<path class="st1" d="M108.3,50.5v0.5h-7.7v-0.4c2.6-2,6.7-5.6,6.7-8.6c0-1.3-0.9-2.8-3.4-2.8c-1.3,0-2.4,0.4-3.2,0.8v-0.6
		c0.8-0.4,1.9-0.8,3.2-0.8c2.9,0,4,1.8,4,3.4c0,3-3.8,6.4-6.4,8.5H108.3z"/>
	<path class="st1" d="M117.7,47.8c0,2-1.4,3.4-4.3,3.4c-1.2,0-2.2-0.2-3.1-0.7V50c0.8,0.5,1.8,0.7,3,0.7c2.5,0,3.9-1,3.9-2.9
		c0-1.8-1.3-2.9-3.9-2.9h-1.4v-0.5h1.4c2.3,0,3.4-1,3.4-2.6c0-1.6-1.2-2.6-3.4-2.6c-1,0-2,0.2-2.7,0.6v-0.6c0.7-0.4,1.7-0.6,2.7-0.6
		c2.7,0,4,1.3,4,3.1c0,1.7-1.2,2.7-2.5,2.8C116.2,44.8,117.7,45.8,117.7,47.8z"/>
</g>
<g class="st0">
	<path class="st2" d="M16.1,20.2c-1.2,0-2.2,0.3-3.2,0.8s-1.7,1.3-2.2,2.3c-0.5,1-0.8,2.1-0.8,3.4c0,1.3,0.3,2.5,0.8,3.5
		c0.5,1,1.3,1.8,2.2,2.3s2,0.8,3.2,0.8c1.1,0,2-0.1,2.6-0.3c0.6-0.2,1.2-0.5,1.6-0.8V36c-0.4,0.2-1,0.4-1.8,0.5
		c-0.8,0.2-1.6,0.2-2.4,0.2c-2.1,0-3.9-0.4-5.4-1.3c-1.5-0.9-2.6-2-3.4-3.5c-0.8-1.5-1.2-3.2-1.2-5.1c0-1.9,0.4-3.5,1.2-5
		c0.8-1.5,2-2.7,3.5-3.6c1.5-0.9,3.3-1.3,5.2-1.3c1.9,0,3.3,0.3,4.2,0.8v3.7C19.3,20.6,17.9,20.2,16.1,20.2z"/>
	<path class="st2" d="M25.4,35.9c-1-0.5-1.8-1.3-2.3-2.2c-0.6-1-0.8-2-0.8-3.2c0-1.2,0.3-2.3,0.8-3.2c0.6-1,1.3-1.7,2.3-2.3
		s2.1-0.8,3.4-0.8c1.3,0,2.4,0.3,3.4,0.8s1.8,1.3,2.3,2.3c0.5,1,0.8,2,0.8,3.2c0,1.2-0.3,2.3-0.8,3.2c-0.5,1-1.3,1.7-2.3,2.2
		s-2.1,0.8-3.4,0.8C27.5,36.7,26.3,36.5,25.4,35.9z M30.3,33.3c0.5-0.3,0.8-0.7,1.1-1.1c0.2-0.5,0.4-1,0.4-1.7
		c0-0.6-0.1-1.2-0.4-1.7s-0.6-0.9-1.1-1.2s-1-0.4-1.6-0.4c-0.6,0-1.1,0.1-1.6,0.4s-0.8,0.7-1.1,1.2c-0.3,0.5-0.4,1.1-0.4,1.7
		c0,0.6,0.1,1.2,0.4,1.7c0.3,0.5,0.6,0.9,1.1,1.1s1,0.4,1.6,0.4C29.3,33.7,29.9,33.6,30.3,33.3z"/>
	<path class="st2" d="M50.3,16.4v20h-3.6v-2.1c-0.2,0.4-0.4,0.7-0.8,1.1c-0.4,0.4-0.9,0.7-1.4,0.9c-0.6,0.2-1.2,0.4-1.9,0.4
		c-1.1,0-2.1-0.3-3-0.8s-1.6-1.3-2.1-2.3c-0.5-1-0.8-2-0.8-3.2c0-1.2,0.3-2.3,0.8-3.2s1.2-1.7,2.1-2.3s1.9-0.8,3-0.8
		c0.7,0,1.4,0.1,2,0.4c0.6,0.2,1,0.5,1.4,0.9c0.4,0.3,0.6,0.7,0.7,1v-10H50.3z M40.2,30.5c0,0.7,0.1,1.3,0.4,1.8
		c0.3,0.5,0.7,0.9,1.2,1.2c0.5,0.3,1,0.4,1.6,0.4c0.6,0,1.1-0.1,1.6-0.4c0.5-0.3,0.9-0.7,1.1-1.2c0.3-0.5,0.4-1.1,0.4-1.8
		s-0.1-1.3-0.4-1.8c-0.3-0.5-0.6-0.9-1.1-1.2c-0.5-0.3-1-0.4-1.6-0.4c-0.6,0-1.1,0.1-1.6,0.4c-0.5,0.3-0.9,0.7-1.2,1.2
		C40.3,29.2,40.2,29.8,40.2,30.5z"/>
	<path class="st2" d="M55.6,32.4c0.3,0.5,0.6,0.9,1.1,1.1c0.5,0.3,1,0.4,1.7,0.4c0.9,0,1.6-0.2,2.3-0.5s1.2-0.7,1.6-1.1l1.7,2.3
		c-0.6,0.6-1.3,1.1-2.2,1.5c-0.9,0.3-2.1,0.5-3.5,0.5c-1.3,0-2.4-0.3-3.4-0.8c-1-0.5-1.8-1.3-2.3-2.2c-0.6-1-0.8-2.1-0.8-3.4
		c0-1.2,0.3-2.2,0.8-3.1c0.5-0.9,1.3-1.7,2.2-2.2s2.1-0.8,3.3-0.8c1.2,0,2.3,0.2,3.2,0.7c0.9,0.5,1.6,1.2,2.2,2.1
		c0.5,0.9,0.8,2,0.8,3.3c0,0,0,0.1,0,0.2s0,0.1,0,0.2c0,0.1,0,0.1,0,0.2c0,0,0,0.1,0,0.1h-8.9C55.2,31.5,55.4,32,55.6,32.4z
		 M60.3,28c-0.2-0.4-0.5-0.7-0.9-1c-0.4-0.3-0.8-0.4-1.3-0.4c-0.5,0-1,0.1-1.4,0.4c-0.4,0.2-0.7,0.6-1,1c-0.2,0.4-0.4,0.9-0.4,1.3
		h5.3C60.6,28.9,60.5,28.4,60.3,28z"/>
	<path class="st2" d="M75.5,20.2c-1.2,0-2.2,0.3-3.2,0.8s-1.7,1.3-2.2,2.3c-0.5,1-0.8,2.1-0.8,3.4c0,1.3,0.3,2.5,0.8,3.5
		c0.5,1,1.3,1.8,2.2,2.3s2,0.8,3.2,0.8c1.1,0,2-0.1,2.6-0.3c0.6-0.2,1.2-0.5,1.6-0.8V36c-0.4,0.2-1,0.4-1.8,0.5
		c-0.8,0.2-1.6,0.2-2.4,0.2c-2.1,0-3.9-0.4-5.4-1.3c-1.5-0.9-2.6-2-3.4-3.5c-0.8-1.5-1.2-3.2-1.2-5.1c0-1.9,0.4-3.5,1.2-5
		c0.8-1.5,2-2.7,3.5-3.6s3.3-1.3,5.2-1.3c1.9,0,3.3,0.3,4.2,0.8v3.7C78.8,20.6,77.4,20.2,75.5,20.2z"/>
	<path class="st2" d="M84.8,35.9c-1-0.5-1.8-1.3-2.3-2.2s-0.8-2-0.8-3.2c0-1.2,0.3-2.3,0.8-3.2s1.3-1.7,2.3-2.3
		c1-0.5,2.1-0.8,3.4-0.8c1.3,0,2.4,0.3,3.4,0.8s1.8,1.3,2.3,2.3c0.5,1,0.8,2,0.8,3.2c0,1.2-0.3,2.3-0.8,3.2c-0.5,1-1.3,1.7-2.3,2.2
		s-2.1,0.8-3.4,0.8C86.9,36.7,85.8,36.5,84.8,35.9z M89.7,33.3c0.5-0.3,0.8-0.7,1.1-1.1c0.2-0.5,0.4-1,0.4-1.7
		c0-0.6-0.1-1.2-0.4-1.7c-0.2-0.5-0.6-0.9-1.1-1.2c-0.5-0.3-1-0.4-1.6-0.4c-0.6,0-1.1,0.1-1.6,0.4s-0.8,0.7-1.1,1.2
		c-0.3,0.5-0.4,1.1-0.4,1.7c0,0.6,0.1,1.2,0.4,1.7c0.3,0.5,0.6,0.9,1.1,1.1s1,0.4,1.6,0.4C88.7,33.7,89.3,33.6,89.7,33.3z"/>
	<path class="st2" d="M106.6,24.7c0.8,0.3,1.4,0.9,1.9,1.6c0.5,0.7,0.7,1.7,0.7,2.8v7.3h-3.7v-6.7c0-1-0.2-1.7-0.7-2.2
		c-0.4-0.5-1.1-0.7-1.8-0.7c-0.5,0-1,0.1-1.4,0.4s-0.8,0.6-1.1,1.1c-0.3,0.5-0.4,1-0.4,1.6v6.5h-3.7V24.5h3.7v1.9
		c0.1-0.3,0.3-0.7,0.7-1c0.4-0.3,0.9-0.6,1.5-0.9c0.6-0.2,1.2-0.3,1.8-0.3C105,24.1,105.8,24.3,106.6,24.7z"/>
	<path class="st2" d="M112.6,21.2c0-1.1,0.2-2.1,0.7-2.8s1-1.4,1.8-1.7c0.7-0.4,1.5-0.6,2.3-0.6c0.5,0,1,0,1.5,0.1s0.8,0.2,1.1,0.3
		c0.3,0.1,0.4,0.2,0.5,0.3l-1.3,2.8c-0.1-0.1-0.2-0.2-0.4-0.3c-0.2-0.1-0.5-0.1-0.8-0.1c-0.4,0-0.8,0.2-1.1,0.5
		c-0.3,0.3-0.5,1-0.5,1.8v2.9h2.9v3h-2.9v8.9h-3.6v-8.9h-2.2v-3h2.2V21.2z"/>
</g>
</svg>
